<?xml version="1.0" encoding="UTF-8"?><svg xmlns="http://www.w3.org/2000/svg" xmlns:xlink="http://www.w3.org/1999/xlink" viewBox="0 0 1301.42 784.28"><defs><style>.d{stroke:#68e5f9;}.d,.e,.f,.g,.h,.i,.j,.k,.l,.m,.n,.o,.p,.q,.r,.s,.t,.u,.v,.w,.x,.y,.a`,.aa,.ab,.ac,.ad,.ae,.af,.ag,.ah,.ai,.aj,.ak,.al,.am,.an,.ao,.ap,.aq,.ar,.as,.at,.au,.av,.aw,.ax,.ay,.b`,.ba,.bb,.bc,.bd,.be,.bf,.bg,.bh,.bi,.bj,.bk,.bl,.bm,.bn,.bo,.bp,.bq,.br,.bs,.bt,.bu,.bv,.bw,.bx,.by,.c`,.ca,.cb,.cc,.cd,.ce,.cf,.cg,.ch,.ci,.cj,.ck,.cl,.cm,.cn,.co,.cp,.cq,.cr,.cs,.ct,.cu,.cv,.cw,.cx,.cy,.d`,.da,.db,.dc,.dd{fill:none;}.d,.e,.f,.g,.h,.i,.j,.k,.l,.m,.n,.o,.p,.q,.r,.s,.t,.u,.v,.w,.x,.y,.a`,.aa,.ab,.ac,.ad,.ae,.af,.ag,.ah,.ai,.aj,.ak,.al,.am,.an,.ao,.ap,.aq,.ar,.as,.at,.au,.av,.aw,.ax,.ay,.b`,.ba,.bb,.bc,.bd,.be,.bf,.bg,.bh,.bi,.bj,.bk,.bl,.bm,.bn,.bo,.bp,.bq,.bs,.bt,.bu,.bv,.bw,.bx,.by,.c`,.ca,.cb,.cc,.cd,.ce,.cf,.cg,.ch,.ci,.cj,.ck,.cl,.cm,.cn,.co,.cp,.cq,.cr,.cs,.ct,.cu,.cv,.cw,.cx,.cy,.d`,.da,.db,.dc,.dd{stroke-miterlimit:10;stroke-width:20px;}.e{stroke:#8deefb;}.f{stroke:#abf5fe;}.g{stroke:#96f0fc;}.h{stroke:#79e9fa;}.i{stroke:#65e4f8;}.j{stroke:#86ecfb;}.k{stroke:#b8f8ff;}.l{stroke:#b9f9ff;}.m{stroke:#aef6fe;}.n{stroke:#91effc;}.o{stroke:#89edfb;}.p{stroke:#61e3f8;}.q{stroke:#84ecfb;}.r{stroke:#a0f3fd;}.s{stroke:#78e9fa;}.t{stroke:#5ce2f8;}.u{stroke:#6fe6f9;}.v{stroke:#99f1fc;}.w{stroke:#8ceefb;}.x{stroke:#aaf5fe;}.y{stroke:#a7f4fd;}.a`{stroke:#6ce6f9;}.aa{stroke:#9af1fc;}.ab{stroke:#8aedfb;}.ac{stroke:#a3f3fd;}.ad{stroke:#8feefc;}.ae{stroke:#b0f6fe;}.af{stroke:#66e4f8;}.ag{stroke:#83ebfb;}.ah{stroke:#90effc;}.ai{stroke:#64e4f8;}.aj{stroke:#b3f7fe;}.ak{stroke:#93effc;}.al{stroke:#57e1f7;}.am{stroke:#73e7f9;}.an{stroke:#95f0fc;}.ao{stroke:#6ae5f9;}.ap{stroke:#77e8fa;}.aq{stroke:#9ef2fd;}.ar{stroke:#88edfb;}.as{stroke:#b2f7fe;}.at{stroke:#5ae1f7;}.au{stroke:#94f0fc;}.av{stroke:#75e8fa;}.aw{stroke:#98f1fc;}.ax{stroke:#71e7f9;}.ay{stroke:#85ecfb;}.b`{stroke:#a4f3fd;}.ba{stroke:#aff6fe;}.bb{stroke:#b1f7fe;}.bc{stroke:#9cf2fd;}.bd{stroke:#b4f7fe;}.be{stroke:#80ebfa;}.de{clip-path:url(#c);}.bf{stroke:#74e8f9;}.bg{stroke:#92effc;}.bh{stroke:#a6f4fd;}.bi{stroke:#5fe3f8;}.bj{stroke:#7deafa;}.bk{stroke:#67e5f8;}.bl{stroke:#9ff2fd;}.bm{stroke:#87ecfb;}.bn{stroke:#56e0f7;}.bo{stroke:#9bf1fd;}.bp{stroke:#8eeefc;}.bq{stroke:#76e8fa;}.bs{stroke:#60e3f8;}.bt{stroke:#69e5f9;}.bu{stroke:#6ee6f9;}.bv{stroke:#55e0f7;}.bw{stroke:#b5f8ff;}.bx{stroke:#63e4f8;}.by{stroke:#acf5fe;}.c`{stroke:#82ebfb;}.ca{stroke:#b6f8ff;}.cb{stroke:#5be2f8;}.cc{stroke:#a5f4fd;}.cd{stroke:#8bedfb;}.ce{stroke:#7ceafa;}.cf{stroke:#9df2fd;}.cg{stroke:#6de6f9;}.ch{stroke:#7be9fa;}.ci{stroke:#72e7f9;}.cj{stroke:#62e3f8;}.ck{stroke:#a2f3fd;}.cl{stroke:#bbf9ff;}.cm{stroke:#a1f3fd;}.cn{stroke:#7ae9fa;}.co{stroke:#81ebfa;}.cp{stroke:#7eeafa;}.cq{stroke:#a8f4fe;}.cr{stroke:#a9f5fe;}.cs{stroke:#97f0fc;}.ct{stroke:#b7f8ff;}.cu{stroke:#6be6f9;}.cv{stroke:#5de2f8;}.cw{stroke:#5ee2f8;}.cx{stroke:#adf6fe;}.df{fill:#1d1d1b;}.cy{stroke:#54e0f7;}.d`{stroke:#7feafa;}.da{stroke:#58e1f7;}.db{stroke:#70e7f9;}.dc{stroke:#baf9ff;}.dd{stroke:#59e1f7;}</style><clipPath id="c"><path d="M1218.52,710.75c-83.75-123.49-210.31-126.36-328.39-36.56l-92.21,70.14c-112.52,83.67-201.75,27.72-223.07-91.69l-2.96-30.76c-8.57-89.18-82.8-122.19-147.22-59.22l-19.46,19.03c-74.51,72.83-253.33,19.01-258.77-110.17l5.01-129.78C155.23,243.48,100.38,177.31,0,190.16L82.9,.06c100.38-12.85,189.63,66.07,185.84,164.32l-5.01,129.78c-3.98,103.3,125.46,159.21,199.97,86.37l19.46-19.03c64.42-62.97,176.61-22.69,185.18,66.49l2.96,30.76c7.41,77.06,100.07,116.65,162.29,69.34l92.21-70.14c118.07-89.81,291.85-60.8,375.6,62.69l-82.9,190.1Z" fill="none"/></clipPath></defs><g id="a"/><g id="b"><g clip-path="#c"><g><path d="M82.9,.06c100.38-12.85,189.63,66.07,185.84,164.32l-5.01,129.78c-3.98,103.3,125.46,159.21,199.97,86.37l19.46-19.03c64.42-62.97,176.61-22.69,185.18,66.49l2.96,30.76c7.41,77.06,100.07,116.65,162.29,69.34l92.21-70.14c118.07-89.81,291.85-60.8,375.6,62.69" fill="none" stroke="#54e0f7" stroke-miterlimit="10" stroke-width="20"/><path d="M82.1,1.89c100.38-12.85,189.3,65.95,185.51,164.2l-5.01,129.78c-3.89,103.55,126.02,159.44,200.54,86.6l19.46-19.03c64.42-62.97,176.25-22.76,184.82,66.42l2.96,30.76c7.54,77.47,100.18,117.22,162.87,69.55l92.21-70.14c118.07-89.81,291.4-61.06,375.15,62.43" fill="none" stroke="#55e0f7" stroke-miterlimit="10" stroke-width="20"/><path d="M81.31,3.72c100.38-12.85,188.97,65.82,185.18,164.08l-5.01,129.78c-3.8,103.8,126.59,159.67,201.1,86.83l19.46-19.03c64.42-62.97,175.88-22.83,184.45,66.35l2.96,30.76c7.67,77.88,100.28,117.78,163.45,69.77l92.21-70.14c118.07-89.81,290.95-61.31,374.7,62.18" fill="none" stroke="#56e0f7" stroke-miterlimit="10" stroke-width="20"/><path d="M80.51,5.55c100.38-12.85,188.64,65.7,184.85,163.96l-5.01,129.78c-3.71,104.04,127.16,159.89,201.67,87.06l19.46-19.03c64.42-62.97,175.52-22.9,184.09,66.28l2.96,30.76c7.81,78.28,100.38,118.35,164.04,69.98l92.21-70.14c118.07-89.81,290.49-61.56,374.24,61.93" fill="none" stroke="#57e1f7" stroke-miterlimit="10" stroke-width="20"/><path d="M79.71,7.38c100.38-12.85,188.31,65.58,184.52,163.83l-5.01,129.78c-3.62,104.29,127.72,160.12,202.23,87.29l19.46-19.03c64.42-62.97,175.15-22.97,183.72,66.21l2.96,30.76c7.94,78.69,100.48,118.91,164.62,70.2l92.21-70.14c118.07-89.81,290.04-61.81,373.79,61.68" fill="none" stroke="#58e1f7" stroke-miterlimit="10" stroke-width="20"/><path d="M78.92,9.2c100.38-12.85,187.98,65.46,184.19,163.71l-5.01,129.78c-3.53,104.54,128.29,160.35,202.8,87.52l19.46-19.03c64.42-62.97,174.79-23.04,183.36,66.14l2.96,30.76c8.07,79.1,100.58,119.48,165.21,70.41l92.21-70.14c118.07-89.81,289.58-62.06,373.33,61.43" fill="none" stroke="#59e1f7" stroke-miterlimit="10" stroke-width="20"/><path d="M78.12,11.03C178.5-1.82,265.77,76.37,261.98,174.62l-5.01,129.78c-3.44,104.79,128.85,160.58,203.36,87.75l19.46-19.03c64.42-62.97,174.42-23.11,182.99,66.07l2.96,30.76c8.21,79.5,100.68,120.04,165.79,70.63l92.21-70.14c118.07-89.81,289.13-62.31,372.88,61.18" fill="none" stroke="#5ae1f7" stroke-miterlimit="10" stroke-width="20"/><path d="M77.32,12.86C177.7,.01,264.64,78.07,260.85,176.33l-5.01,129.78c-3.35,105.04,129.42,160.81,203.93,87.97l19.46-19.03c64.42-62.97,174.06-23.18,182.63,66l2.96,30.76c8.34,79.91,100.78,120.61,166.38,70.84l92.21-70.14c118.07-89.81,288.68-62.56,372.43,60.93" fill="none" stroke="#5be2f8" stroke-miterlimit="10" stroke-width="20"/><path d="M76.52,14.69C176.91,1.84,263.51,79.78,259.72,178.03l-5.01,129.78c-3.26,105.29,129.98,161.04,204.49,88.2l19.46-19.03c64.42-62.97,173.69-23.25,182.26,65.93l2.96,30.76c8.48,80.32,100.88,121.17,166.96,71.06l92.21-70.14c118.07-89.81,288.22-62.81,371.97,60.68" fill="none" stroke="#5ce2f8" stroke-miterlimit="10" stroke-width="20"/><path d="M75.73,16.52c100.38-12.85,186.66,64.97,182.87,163.22l-5.01,129.78c-3.17,105.54,130.55,161.27,205.06,88.43l19.46-19.03c64.42-62.97,173.33-23.32,181.9,65.86l2.96,30.76c8.61,80.73,100.98,121.74,167.55,71.27l92.21-70.14c118.07-89.81,287.77-63.07,371.52,60.42" fill="none" stroke="#5de2f8" stroke-miterlimit="10" stroke-width="20"/><path d="M74.93,18.34c100.38-12.85,186.33,64.84,182.54,163.1l-5.01,129.78c-3.08,105.79,131.11,161.5,205.63,88.66l19.46-19.03c64.42-62.97,172.96-23.39,181.53,65.79l2.96,30.76c8.74,81.13,101.08,122.3,168.13,71.49l92.21-70.14c118.07-89.81,287.31-63.32,371.06,60.17" fill="none" stroke="#5ee2f8" stroke-miterlimit="10" stroke-width="20"/><path d="M74.13,20.17c100.38-12.85,186,64.72,182.21,162.98l-5.01,129.78c-2.99,106.03,131.68,161.72,206.19,88.89l19.46-19.03c64.42-62.97,172.6-23.46,181.17,65.72l2.96,30.76c8.88,81.54,101.18,122.86,168.71,71.7l92.21-70.14c118.07-89.81,286.86-63.57,370.61,59.92" fill="none" stroke="#5fe3f8" stroke-miterlimit="10" stroke-width="20"/><path d="M73.34,22c100.38-12.85,185.67,64.6,181.88,162.85l-5.01,129.78c-2.9,106.28,132.24,161.95,206.76,89.12l19.46-19.03c64.42-62.97,172.23-23.53,180.8,65.65l2.96,30.76c9.01,81.95,101.28,123.43,169.3,71.92l92.21-70.14c118.07-89.81,286.41-63.82,370.16,59.67" fill="none" stroke="#60e3f8" stroke-miterlimit="10" stroke-width="20"/><path d="M72.54,23.83c100.38-12.85,185.33,64.47,181.54,162.73l-5.01,129.78c-2.81,106.53,132.81,162.18,207.32,89.35l19.46-19.03c64.42-62.97,171.87-23.6,180.44,65.58l2.96,30.76c9.15,82.36,101.38,123.99,169.88,72.13l92.21-70.14c118.07-89.81,285.95-64.07,369.7,59.42" fill="none" stroke="#61e3f8" stroke-miterlimit="10" stroke-width="20"/><path d="M71.74,25.65c100.38-12.85,185,64.35,181.21,162.61l-5.01,129.78c-2.72,106.78,133.37,162.41,207.89,89.58l19.46-19.03c64.42-62.97,171.5-23.67,180.07,65.51l2.96,30.76c9.28,82.76,101.48,124.56,170.47,72.35l92.21-70.14c118.07-89.81,285.5-64.32,369.25,59.17" fill="none" stroke="#62e3f8" stroke-miterlimit="10" stroke-width="20"/><path d="M70.94,27.48c100.38-12.85,184.67,64.23,180.88,162.48l-5.01,129.78c-2.63,107.03,133.94,162.64,208.45,89.8l19.46-19.03c64.42-62.97,171.14-23.74,179.71,65.44l2.96,30.76c9.41,83.17,101.59,125.12,171.05,72.56l92.21-70.14c118.07-89.81,285.04-64.57,368.79,58.92" fill="none" stroke="#63e4f8" stroke-miterlimit="10" stroke-width="20"/><path d="M70.15,29.31c100.38-12.85,184.34,64.11,180.55,162.36l-5.01,129.78c-2.53,107.28,134.5,162.87,209.02,90.03l19.46-19.03c64.42-62.97,170.77-23.81,179.34,65.37l2.96,30.76c9.55,83.58,101.69,125.69,171.64,72.78l92.21-70.14c118.07-89.81,284.59-64.82,368.34,58.67" fill="none" stroke="#64e4f8" stroke-miterlimit="10" stroke-width="20"/><path d="M69.35,31.14c100.38-12.85,184.01,63.98,180.22,162.24l-5.01,129.78c-2.44,107.53,135.07,163.1,209.58,90.26l19.46-19.03c64.42-62.97,170.41-23.88,178.98,65.3l2.96,30.76c9.68,83.98,101.79,126.25,172.22,72.99l92.21-70.14c118.07-89.81,284.14-65.08,367.89,58.41" fill="none" stroke="#65e4f8" stroke-miterlimit="10" stroke-width="20"/><path d="M68.55,32.97c100.38-12.85,183.68,63.86,179.89,162.12l-5.01,129.78c-2.35,107.78,135.64,163.33,210.15,90.49l19.46-19.03c64.42-62.97,170.04-23.95,178.61,65.23l2.96,30.76c9.81,84.39,101.89,126.82,172.81,73.21l92.21-70.14c118.07-89.81,283.68-65.33,367.43,58.16" fill="none" stroke="#66e4f8" stroke-miterlimit="10" stroke-width="20"/><path d="M67.76,34.79c100.38-12.85,183.35,63.74,179.56,161.99l-5.01,129.78c-2.26,108.02,136.2,163.55,210.71,90.72l19.46-19.03c64.42-62.97,169.68-24.02,178.25,65.16l2.96,30.76c9.95,84.8,101.99,127.38,173.39,73.42l92.21-70.14c118.07-89.81,283.23-65.58,366.98,57.91" fill="none" stroke="#67e5f8" stroke-miterlimit="10" stroke-width="20"/><path d="M66.96,36.62c100.38-12.85,183.02,63.62,179.23,161.87l-5.01,129.78c-2.17,108.27,136.77,163.78,211.28,90.95l19.46-19.03c64.42-62.97,169.31-24.09,177.88,65.09l2.96,30.76c10.08,85.21,102.09,127.95,173.97,73.64l92.21-70.14c118.07-89.81,282.77-65.83,366.52,57.66" fill="none" stroke="#68e5f9" stroke-miterlimit="10" stroke-width="20"/><path d="M66.16,38.45c100.38-12.85,182.69,63.49,178.9,161.75l-5.01,129.78c-2.08,108.52,137.33,164.01,211.84,91.18l19.46-19.03c64.42-62.97,168.95-24.16,177.52,65.02l2.96,30.76c10.22,85.61,102.19,128.51,174.56,73.85l92.21-70.14c118.07-89.81,282.32-66.08,366.07,57.41" fill="none" stroke="#69e5f9" stroke-miterlimit="10" stroke-width="20"/><path d="M65.36,40.28c100.38-12.85,182.36,63.37,178.57,161.63l-5.01,129.78c-1.99,108.77,137.9,164.24,212.41,91.41l19.46-19.03c64.42-62.97,168.58-24.23,177.15,64.95l2.96,30.76c10.35,86.02,102.29,129.07,175.14,74.07l92.21-70.14c118.07-89.81,281.87-66.33,365.62,57.16" fill="none" stroke="#6ae5f9" stroke-miterlimit="10" stroke-width="20"/><path d="M64.57,42.11c100.38-12.85,182.03,63.25,178.24,161.5l-5.01,129.78c-1.9,109.02,138.46,164.47,212.98,91.63l19.46-19.03c64.42-62.97,168.22-24.3,176.79,64.88l2.96,30.76c10.48,86.43,102.39,129.64,175.73,74.28l92.21-70.14c118.07-89.81,281.41-66.58,365.16,56.91" fill="none" stroke="#6be6f9" stroke-miterlimit="10" stroke-width="20"/><path d="M63.77,43.93c100.38-12.85,181.7,63.13,177.91,161.38l-5.01,129.78c-1.81,109.27,139.03,164.7,213.54,91.86l19.46-19.03c64.42-62.97,167.85-24.37,176.42,64.81l2.96,30.76c10.62,86.84,102.49,130.2,176.31,74.5l92.21-70.14c118.07-89.81,280.96-66.83,364.71,56.66" fill="none" stroke="#6ce6f9" stroke-miterlimit="10" stroke-width="20"/><path d="M62.97,45.76c100.38-12.85,181.37,63,177.58,161.26l-5.01,129.78c-1.72,109.52,139.59,164.93,214.11,92.09l19.46-19.03c64.42-62.97,167.49-24.44,176.06,64.74l2.96,30.76c10.75,87.24,102.59,130.77,176.9,74.71l92.21-70.14c118.07-89.81,280.5-67.08,364.25,56.4" fill="none" stroke="#6de6f9" stroke-miterlimit="10" stroke-width="20"/><path d="M62.18,47.59c100.38-12.85,181.03,62.88,177.24,161.14l-5.01,129.78c-1.63,109.77,140.16,165.16,214.67,92.32l19.46-19.03c64.42-62.97,167.12-24.51,175.69,64.67l2.96,30.76c10.89,87.65,102.69,131.33,177.48,74.93l92.21-70.14c118.07-89.81,280.05-67.34,363.8,56.15" fill="none" stroke="#6ee6f9" stroke-miterlimit="10" stroke-width="20"/><path d="M61.38,49.42c100.38-12.85,180.7,62.76,176.91,161.01l-5.01,129.78c-1.54,110.02,140.72,165.38,215.24,92.55l19.46-19.03c64.42-62.97,166.76-24.58,175.33,64.6l2.96,30.76c11.02,88.06,102.79,131.9,178.07,75.14l92.21-70.14c118.07-89.81,279.6-67.59,363.35,55.9" fill="none" stroke="#6fe6f9" stroke-miterlimit="10" stroke-width="20"/><path d="M60.58,51.25c100.38-12.85,180.37,62.64,176.58,160.89l-5.01,129.78c-1.45,110.26,141.29,165.61,215.8,92.78l19.46-19.03c64.42-62.97,166.39-24.65,174.96,64.53l2.96,30.76c11.15,88.46,102.89,132.46,178.65,75.36l92.21-70.14c118.07-89.81,279.14-67.84,362.89,55.65" fill="none" stroke="#70e7f9" stroke-miterlimit="10" stroke-width="20"/><path d="M59.79,53.07c100.38-12.85,180.04,62.51,176.25,160.77l-5.01,129.78c-1.36,110.51,141.85,165.84,216.37,93.01l19.46-19.03c64.42-62.97,166.03-24.72,174.6,64.46l2.96,30.76c11.29,88.87,103,133.03,179.24,75.57l92.21-70.14c118.07-89.81,278.69-68.09,362.44,55.4" fill="none" stroke="#71e7f9" stroke-miterlimit="10" stroke-width="20"/><path d="M58.99,54.9c100.38-12.85,179.71,62.39,175.92,160.65l-5.01,129.78c-1.27,110.76,142.42,166.07,216.93,93.24l19.46-19.03c64.42-62.97,165.66-24.79,174.23,64.39l2.96,30.76c11.42,89.28,103.1,133.59,179.82,75.79l92.21-70.14c118.07-89.81,278.23-68.34,361.98,55.15" fill="none" stroke="#72e7f9" stroke-miterlimit="10" stroke-width="20"/><path d="M58.19,56.73c100.38-12.85,179.38,62.27,175.59,160.52l-5.01,129.78c-1.17,111.01,142.99,166.3,217.5,93.46l19.46-19.03c64.42-62.97,165.3-24.86,173.87,64.32l2.96,30.76c11.55,89.69,103.2,134.15,180.4,76l92.21-70.14c118.07-89.81,277.78-68.59,361.53,54.9" fill="none" stroke="#73e7f9" stroke-miterlimit="10" stroke-width="20"/><path d="M57.39,58.56c100.38-12.85,179.05,62.15,175.26,160.4l-5.01,129.78c-1.08,111.26,143.55,166.53,218.06,93.69l19.46-19.03c64.42-62.97,164.93-24.93,173.5,64.25l2.96,30.76c11.69,90.09,103.3,134.72,180.99,76.22l92.21-70.14c118.07-89.81,277.33-68.84,361.08,54.65" fill="none" stroke="#74e8f9" stroke-miterlimit="10" stroke-width="20"/><path d="M56.6,60.38c100.38-12.85,178.72,62.02,174.93,160.28l-5.01,129.78c-.99,111.51,144.12,166.76,218.63,93.92l19.46-19.03c64.42-62.97,164.57-25,173.14,64.18l2.96,30.76c11.82,90.5,103.4,135.28,181.57,76.43l92.21-70.14c118.07-89.81,276.87-69.09,360.62,54.39" fill="none" stroke="#75e8fa" stroke-miterlimit="10" stroke-width="20"/><path d="M55.8,62.21c100.38-12.85,178.39,61.9,174.6,160.16l-5.01,129.78c-.9,111.76,144.68,166.99,219.19,94.15l19.46-19.03c64.42-62.97,164.2-25.07,172.77,64.11l2.96,30.76c11.96,90.91,103.5,135.85,182.16,76.65l92.21-70.14c118.07-89.81,276.42-69.35,360.17,54.14" fill="none" stroke="#76e8fa" stroke-miterlimit="10" stroke-width="20"/><path d="M55,64.04c100.38-12.85,178.06,61.78,174.27,160.03l-5.01,129.78c-.81,112.01,145.25,167.21,219.76,94.38l19.46-19.03c64.42-62.97,163.84-25.14,172.41,64.04l2.96,30.76c12.09,91.32,103.6,136.41,182.74,76.86l92.21-70.14c118.07-89.81,275.96-69.6,359.71,53.89" fill="none" stroke="#77e8fa" stroke-miterlimit="10" stroke-width="20"/><path d="M54.21,65.87c100.38-12.85,177.73,61.65,173.94,159.91l-5.01,129.78c-.72,112.25,145.81,167.44,220.33,94.61l19.46-19.03c64.42-62.97,163.47-25.21,172.04,63.97l2.96,30.76c12.22,91.72,103.7,136.98,183.33,77.08l92.21-70.14c118.07-89.81,275.51-69.85,359.26,53.64" fill="none" stroke="#78e9fa" stroke-miterlimit="10" stroke-width="20"/><path d="M53.41,67.7c100.38-12.85,177.4,61.53,173.61,159.79l-5.01,129.78c-.63,112.5,146.38,167.67,220.89,94.84l19.46-19.03c64.42-62.97,163.11-25.28,171.68,63.9l2.96,30.76c12.36,92.13,103.8,137.54,183.91,77.29l92.21-70.14c118.07-89.81,275.06-70.1,358.81,53.39" fill="none" stroke="#79e9fa" stroke-miterlimit="10" stroke-width="20"/><path d="M52.61,69.52c100.38-12.85,177.07,61.41,173.28,159.66l-5.01,129.78c-.54,112.75,146.94,167.9,221.46,95.07l19.46-19.03c64.42-62.97,162.74-25.35,171.31,63.83l2.96,30.76c12.49,92.54,103.9,138.11,184.5,77.51l92.21-70.14c118.07-89.81,274.6-70.35,358.35,53.14" fill="none" stroke="#7ae9fa" stroke-miterlimit="10" stroke-width="20"/><path d="M51.81,71.35c100.38-12.85,176.73,61.29,172.94,159.54l-5.01,129.78c-.45,113,147.51,168.13,222.02,95.3l19.46-19.03c64.42-62.97,162.38-25.42,170.95,63.76l2.96,30.76c12.63,92.94,104,138.67,185.08,77.72l92.21-70.14c118.07-89.81,274.15-70.6,357.9,52.89" fill="none" stroke="#7be9fa" stroke-miterlimit="10" stroke-width="20"/><path d="M51.02,73.18c100.38-12.85,176.4,61.16,172.61,159.42l-5.01,129.78c-.36,113.25,148.07,168.36,222.59,95.52l19.46-19.03c64.42-62.97,162.01-25.49,170.58,63.69l2.96,30.76c12.76,93.35,104.1,139.24,185.66,77.94l92.21-70.14c118.07-89.81,273.69-70.85,357.44,52.64" fill="none" stroke="#7ceafa" stroke-miterlimit="10" stroke-width="20"/><path d="M50.22,75.01c100.38-12.85,176.07,61.04,172.28,159.3l-5.01,129.78c-.27,113.5,148.64,168.59,223.15,95.75l19.46-19.03c64.42-62.97,161.65-25.56,170.22,63.62l2.96,30.76c12.89,93.76,104.2,139.8,186.25,78.15l92.21-70.14c118.07-89.81,273.24-71.1,356.99,52.38" fill="none" stroke="#7deafa" stroke-miterlimit="10" stroke-width="20"/><path d="M49.42,76.84c100.38-12.85,175.74,60.92,171.95,159.17l-5.01,129.78c-.18,113.75,149.2,168.82,223.72,95.98l19.46-19.03c64.42-62.97,161.28-25.63,169.85,63.55l2.96,30.76c13.03,94.17,104.3,140.36,186.83,78.37l92.21-70.14c118.07-89.81,272.79-71.36,356.54,52.13" fill="none" stroke="#7eeafa" stroke-miterlimit="10" stroke-width="20"/><path d="M48.63,78.66c100.38-12.85,175.41,60.8,171.62,159.05l-5.01,129.78c-.09,114,149.77,169.04,224.28,96.21l19.46-19.03c64.42-62.97,160.92-25.7,169.49,63.48l2.96,30.76c13.16,94.57,104.41,140.93,187.42,78.58l92.21-70.14c118.07-89.81,272.33-71.61,356.08,51.88" fill="none" stroke="#7feafa" stroke-miterlimit="10" stroke-width="20"/><path d="M47.83,80.49c100.38-12.85,175.08,60.67,171.29,158.93l-5.01,129.78c0,114.24,150.34,169.27,224.85,96.44l19.46-19.03c64.42-62.97,160.55-25.77,169.12,63.41l2.96,30.76c13.29,94.98,104.51,141.49,188,78.8l92.21-70.14c118.07-89.81,271.88-71.86,355.63,51.63" fill="none" stroke="#80ebfa" stroke-miterlimit="10" stroke-width="20"/><path d="M47.03,82.32c100.38-12.85,174.75,60.55,170.96,158.81l-5.01,129.78c.09,114.49,150.9,169.5,225.41,96.67l19.46-19.03c64.42-62.97,160.19-25.84,168.76,63.34l2.96,30.76c13.43,95.39,104.61,142.06,188.59,79.01l92.21-70.14c118.07-89.81,271.42-72.11,355.17,51.38" fill="none" stroke="#81ebfa" stroke-miterlimit="10" stroke-width="20"/><path d="M46.23,84.15c100.38-12.85,174.42,60.43,170.63,158.68l-5.01,129.78c.18,114.74,151.47,169.73,225.98,96.9l19.46-19.03c64.42-62.97,159.82-25.91,168.39,63.27l2.96,30.76c13.56,95.8,104.71,142.62,189.17,79.23l92.21-70.14c118.07-89.81,270.97-72.36,354.72,51.13" fill="none" stroke="#82ebfb" stroke-miterlimit="10" stroke-width="20"/><path d="M45.44,85.97c100.38-12.85,174.09,60.31,170.3,158.56l-5.01,129.78c.28,114.99,152.03,169.96,226.54,97.13l19.46-19.03c64.42-62.97,159.46-25.98,168.03,63.2l2.96,30.76c13.7,96.2,104.81,143.19,189.76,79.44l92.21-70.14c118.07-89.81,270.52-72.61,354.27,50.88" fill="none" stroke="#83ebfb" stroke-miterlimit="10" stroke-width="20"/><path d="M44.64,87.8c100.38-12.85,173.76,60.18,169.97,158.44l-5.01,129.78c.37,115.24,152.6,170.19,227.11,97.35l19.46-19.03c64.42-62.97,159.09-26.05,167.66,63.13l2.96,30.76c13.83,96.61,104.91,143.75,190.34,79.66l92.21-70.14c118.07-89.81,270.06-72.86,353.81,50.63" fill="none" stroke="#84ecfb" stroke-miterlimit="10" stroke-width="20"/><path d="M43.84,89.63c100.38-12.85,173.43,60.06,169.64,158.32l-5.01,129.78c.46,115.49,153.16,170.42,227.68,97.58l19.46-19.03c64.42-62.97,158.73-26.12,167.3,63.06l2.96,30.76c13.96,97.02,105.01,144.32,190.92,79.87l92.21-70.14c118.07-89.81,269.61-73.11,353.36,50.38" fill="none" stroke="#85ecfb" stroke-miterlimit="10" stroke-width="20"/><path d="M43.05,91.46c100.38-12.85,173.1,59.94,169.31,158.19l-5.01,129.78c.55,115.74,153.73,170.65,228.24,97.81l19.46-19.03c64.42-62.97,158.36-26.19,166.93,62.99l2.96,30.76c14.1,97.42,105.11,144.88,191.51,80.09l92.21-70.14c118.07-89.81,269.15-73.37,352.9,50.12" fill="none" stroke="#86ecfb" stroke-miterlimit="10" stroke-width="20"/><path d="M42.25,93.29c100.38-12.85,172.77,59.82,168.98,158.07l-5.01,129.78c.64,115.99,154.29,170.88,228.81,98.04l19.46-19.03c64.42-62.97,158-26.26,166.57,62.92l2.96,30.76c14.23,97.83,105.21,145.45,192.09,80.3l92.21-70.14c118.07-89.81,268.7-73.62,352.45,49.87" fill="none" stroke="#87ecfb" stroke-miterlimit="10" stroke-width="20"/><path d="M41.45,95.11c100.38-12.85,172.43,59.69,168.64,157.95l-5.01,129.78c.73,116.23,154.86,171.1,229.37,98.27l19.46-19.03c64.42-62.97,157.63-26.33,166.2,62.85l2.96,30.76c14.37,98.24,105.31,146.01,192.68,80.52l92.21-70.14c118.07-89.81,268.25-73.87,352,49.62" fill="none" stroke="#87ecfb" stroke-miterlimit="10" stroke-width="20"/><path d="M40.65,96.94c100.38-12.85,172.1,59.57,168.31,157.83l-5.01,129.78c.82,116.48,155.42,171.33,229.94,98.5l19.46-19.03c64.42-62.97,157.27-26.4,165.84,62.78l2.96,30.76c14.5,98.65,105.41,146.57,193.26,80.73l92.21-70.14c118.07-89.81,267.79-74.12,351.54,49.37" fill="none" stroke="#88edfb" stroke-miterlimit="10" stroke-width="20"/><path d="M39.86,98.77c100.38-12.85,171.77,59.45,167.98,157.7l-5.01,129.78c.91,116.73,155.99,171.56,230.5,98.73l19.46-19.03c64.42-62.97,156.9-26.47,165.47,62.71l2.96,30.76c14.63,99.05,105.51,147.14,193.85,80.95l92.21-70.14c118.07-89.81,267.34-74.37,351.09,49.12" fill="none" stroke="#89edfb" stroke-miterlimit="10" stroke-width="20"/><path d="M39.06,100.6c100.38-12.85,171.44,59.33,167.65,157.58l-5.01,129.78c1,116.98,156.55,171.79,231.07,98.96l19.46-19.03c64.42-62.97,156.54-26.54,165.11,62.64l2.96,30.76c14.77,99.46,105.61,147.7,194.43,81.16l92.21-70.14c118.07-89.81,266.88-74.62,350.63,48.87" fill="none" stroke="#8aedfb" stroke-miterlimit="10" stroke-width="20"/><path d="M38.26,102.43c100.38-12.85,171.11,59.2,167.32,157.46l-5.01,129.78c1.09,117.23,157.12,172.02,231.63,99.18l19.46-19.03c64.42-62.97,156.17-26.61,164.74,62.57l2.96,30.76c14.9,99.87,105.71,148.27,195.02,81.38l92.21-70.14c118.07-89.81,266.43-74.87,350.18,48.62" fill="none" stroke="#8bedfb" stroke-miterlimit="10" stroke-width="20"/><path d="M37.47,104.25c100.38-12.85,170.78,59.08,166.99,157.33l-5.01,129.78c1.18,117.48,157.69,172.25,232.2,99.41l19.46-19.03c64.42-62.97,155.81-26.68,164.38,62.5l2.96,30.76c15.03,100.28,105.82,148.83,195.6,81.59l92.21-70.14c118.07-89.81,265.98-75.12,349.72,48.37" fill="none" stroke="#8ceefb" stroke-miterlimit="10" stroke-width="20"/><path d="M36.67,106.08c100.38-12.85,170.45,58.96,166.66,157.21l-5.01,129.78c1.27,117.73,158.25,172.48,232.76,99.64l19.46-19.03c64.42-62.97,155.44-26.75,164.01,62.43l2.96,30.76c15.17,100.68,105.92,149.4,196.18,81.81l92.21-70.14c118.07-89.81,265.52-75.38,349.27,48.11" fill="none" stroke="#8deefb" stroke-miterlimit="10" stroke-width="20"/><path d="M35.87,107.91c100.38-12.85,170.12,58.83,166.33,157.09l-5.01,129.78c1.36,117.98,158.82,172.71,233.33,99.87l19.46-19.03c64.42-62.97,155.08-26.82,163.65,62.36l2.96,30.76c15.3,101.09,106.02,149.96,196.77,82.02l92.21-70.14c118.07-89.81,265.07-75.63,348.82,47.86" fill="none" stroke="#8eeefc" stroke-miterlimit="10" stroke-width="20"/><path d="M35.07,109.74c100.38-12.85,169.79,58.71,166,156.97l-5.01,129.78c1.45,118.23,159.38,172.93,233.89,100.1l19.46-19.03c64.42-62.97,154.71-26.89,163.28,62.29l2.96,30.76c15.44,101.5,106.12,150.53,197.35,82.24l92.21-70.14c118.07-89.81,264.61-75.88,348.36,47.61" fill="none" stroke="#8feefc" stroke-miterlimit="10" stroke-width="20"/><path d="M34.28,111.56c100.38-12.85,169.46,58.59,165.67,156.84l-5.01,129.78c1.54,118.47,159.95,173.16,234.46,100.33l19.46-19.03c64.42-62.97,154.35-26.96,162.92,62.22l2.96,30.76c15.57,101.9,106.22,151.09,197.94,82.45l92.21-70.14c118.07-89.81,264.16-76.13,347.91,47.36" fill="none" stroke="#90effc" stroke-miterlimit="10" stroke-width="20"/><path d="M33.48,113.39c100.38-12.85,169.13,58.47,165.34,156.72l-5.01,129.78c1.63,118.72,160.51,173.39,235.02,100.56l19.46-19.03c64.42-62.97,153.98-27.02,162.55,62.15l2.96,30.76c15.7,102.31,106.32,151.65,198.52,82.67l92.21-70.14c118.07-89.81,263.71-76.38,347.45,47.11" fill="none" stroke="#91effc" stroke-miterlimit="10" stroke-width="20"/><path d="M32.68,115.22c100.38-12.85,168.8,58.34,165.01,156.6l-5.01,129.78c1.73,118.97,161.08,173.62,235.59,100.79l19.46-19.03c64.42-62.97,153.62-27.09,162.19,62.08l2.96,30.76c15.84,102.72,106.42,152.22,199.11,82.88l92.21-70.14c118.07-89.81,263.25-76.63,347,46.86" fill="none" stroke="#92effc" stroke-miterlimit="10" stroke-width="20"/><path d="M31.89,117.05c100.38-12.85,168.47,58.22,164.68,156.48l-5.01,129.78c1.82,119.22,161.64,173.85,236.16,101.01l19.46-19.03c64.42-62.97,153.25-27.16,161.82,62.01l2.96,30.76c15.97,103.13,106.52,152.78,199.69,83.1l92.21-70.14c118.07-89.81,262.8-76.88,346.55,46.61" fill="none" stroke="#93effc" stroke-miterlimit="10" stroke-width="20"/><path d="M31.09,118.88c100.38-12.85,168.13,58.1,164.34,156.35l-5.01,129.78c1.91,119.47,162.21,174.08,236.72,101.24l19.46-19.03c64.42-62.97,152.89-27.23,161.46,61.94l2.96,30.76c16.1,103.53,106.62,153.35,200.28,83.31l92.21-70.14c118.07-89.81,262.34-77.13,346.09,46.36" fill="none" stroke="#94f0fc" stroke-miterlimit="10" stroke-width="20"/><path d="M30.29,120.7c100.38-12.85,167.8,57.98,164.01,156.23l-5.01,129.78c2,119.72,162.77,174.31,237.29,101.47l19.46-19.03c64.42-62.97,152.52-27.3,161.09,61.87l2.96,30.76c16.24,103.94,106.72,153.91,200.86,83.53l92.21-70.14c118.07-89.81,261.89-77.39,345.64,46.1" fill="none" stroke="#95f0fc" stroke-miterlimit="10" stroke-width="20"/><path d="M29.49,122.53c100.38-12.85,167.47,57.85,163.68,156.11l-5.01,129.78c2.09,119.97,163.34,174.54,237.85,101.7l19.46-19.03c64.42-62.97,152.16-27.37,160.73,61.8l2.96,30.76c16.37,104.35,106.82,154.48,201.45,83.74l92.21-70.14c118.07-89.81,261.44-77.64,345.18,45.85" fill="none" stroke="#96f0fc" stroke-miterlimit="10" stroke-width="20"/><path d="M28.7,124.36c100.38-12.85,167.14,57.73,163.35,155.99l-5.01,129.78c2.18,120.22,163.9,174.76,238.42,101.93l19.46-19.03c64.42-62.97,151.79-27.44,160.36,61.73l2.96,30.76c16.51,104.75,106.92,155.04,202.03,83.96l92.21-70.14c118.07-89.81,260.98-77.89,344.73,45.6" fill="none" stroke="#97f0fc" stroke-miterlimit="10" stroke-width="20"/><path d="M27.9,126.19c100.38-12.85,166.81,57.61,163.02,155.86l-5.01,129.78c2.27,120.46,164.47,174.99,238.98,102.16l19.46-19.03c64.42-62.97,151.43-27.51,160,61.66l2.96,30.76c16.64,105.16,107.02,155.61,202.61,84.17l92.21-70.14c118.07-89.81,260.53-78.14,344.28,45.35" fill="none" stroke="#98f1fc" stroke-miterlimit="10" stroke-width="20"/><path d="M27.1,128.02c100.38-12.85,166.48,57.49,162.69,155.74l-5.01,129.78c2.36,120.71,165.03,175.22,239.55,102.39l19.46-19.03c64.42-62.97,151.06-27.58,159.63,61.59l2.96,30.76c16.77,105.57,107.13,156.17,203.2,84.39l92.21-70.14c118.07-89.81,260.07-78.39,343.82,45.1" fill="none" stroke="#99f1fc" stroke-miterlimit="10" stroke-width="20"/><path d="M26.31,129.84c100.38-12.85,166.15,57.36,162.36,155.62l-5.01,129.78c2.45,120.96,165.6,175.45,240.11,102.62l19.46-19.03c64.42-62.97,150.7-27.65,159.27,61.52l2.96,30.76c16.91,105.98,107.23,156.74,203.78,84.6l92.21-70.14c118.07-89.81,259.62-78.64,343.37,44.85" fill="none" stroke="#9af1fc" stroke-miterlimit="10" stroke-width="20"/><path d="M25.51,131.67c100.38-12.85,165.82,57.24,162.03,155.5l-5.01,129.78c2.54,121.21,166.17,175.68,240.68,102.84l19.46-19.03c64.42-62.97,150.33-27.72,158.9,61.45l2.96,30.76c17.04,106.38,107.33,157.3,204.37,84.82l92.21-70.14c118.07-89.81,259.17-78.89,342.91,44.6" fill="none" stroke="#9bf1fd" stroke-miterlimit="10" stroke-width="20"/><path d="M24.71,133.5c100.38-12.85,165.49,57.12,161.7,155.37l-5.01,129.78c2.63,121.46,166.73,175.91,241.24,103.07l19.46-19.03c64.42-62.97,149.97-27.79,158.54,61.38l2.96,30.76c17.18,106.79,107.43,157.86,204.95,85.03l92.21-70.14c118.07-89.81,258.71-79.14,342.46,44.35" fill="none" stroke="#9cf2fd" stroke-miterlimit="10" stroke-width="20"/><path d="M23.91,135.33c100.38-12.85,165.16,57,161.37,155.25l-5.01,129.78c2.72,121.71,167.3,176.14,241.81,103.3l19.46-19.03c64.42-62.97,149.6-27.86,158.17,61.31l2.96,30.76c17.31,107.2,107.53,158.43,205.54,85.25l92.21-70.14c118.07-89.81,258.26-79.39,342.01,44.09" fill="none" stroke="#9df2fd" stroke-miterlimit="10" stroke-width="20"/><path d="M23.12,137.15c100.38-12.85,164.83,56.87,161.04,155.13l-5.01,129.78c2.81,121.96,167.86,176.37,242.37,103.53l19.46-19.03c64.42-62.97,149.24-27.93,157.81,61.24l2.96,30.76c17.44,107.61,107.63,158.99,206.12,85.46l92.21-70.14c118.07-89.81,257.8-79.65,341.55,43.84" fill="none" stroke="#9ef2fd" stroke-miterlimit="10" stroke-width="20"/><path d="M22.32,138.98c100.38-12.85,164.5,56.75,160.71,155.01l-5.01,129.78c2.9,122.21,168.43,176.59,242.94,103.76l19.46-19.03c64.42-62.97,148.87-28,157.44,61.17l2.96,30.76c17.58,108.01,107.73,159.56,206.71,85.68l92.21-70.14c118.07-89.81,257.35-79.9,341.1,43.59" fill="none" stroke="#9ff2fd" stroke-miterlimit="10" stroke-width="20"/><path d="M21.52,140.81c100.38-12.85,164.17,56.63,160.37,154.88l-5.01,129.78c2.99,122.45,168.99,176.82,243.51,103.99l19.46-19.03c64.42-62.97,148.51-28.07,157.08,61.1l2.96,30.76c17.71,108.42,107.83,160.12,207.29,85.89l92.21-70.14c118.07-89.81,256.9-80.15,340.64,43.34" fill="none" stroke="#a0f3fd" stroke-miterlimit="10" stroke-width="20"/><path d="M20.73,142.64c100.38-12.85,163.83,56.51,160.04,154.76l-5.01,129.78c3.09,122.7,169.56,177.05,244.07,104.22l19.46-19.03c64.42-62.97,148.14-28.14,156.71,61.03l2.96,30.76c17.84,108.83,107.93,160.69,207.87,86.11l92.21-70.14c118.07-89.81,256.44-80.4,340.19,43.09" fill="none" stroke="#a1f3fd" stroke-miterlimit="10" stroke-width="20"/><path d="M19.93,144.47c100.38-12.85,163.5,56.38,159.71,154.64l-5.01,129.78c3.18,122.95,170.12,177.28,244.64,104.45l19.46-19.03c64.42-62.97,147.78-28.21,156.34,60.96l2.96,30.76c17.98,109.23,108.03,161.25,208.46,86.32l92.21-70.14c118.07-89.81,255.99-80.65,339.74,42.84" fill="none" stroke="#a2f3fd" stroke-miterlimit="10" stroke-width="20"/><path d="M19.13,146.29c100.38-12.85,163.17,56.26,159.38,154.51l-5.01,129.78c3.27,123.2,170.69,177.51,245.2,104.67l19.46-19.03c64.42-62.97,147.41-28.28,155.98,60.89l2.96,30.76c18.11,109.64,108.13,161.82,209.04,86.54l92.21-70.14c118.07-89.81,255.53-80.9,339.28,42.59" fill="none" stroke="#a3f3fd" stroke-miterlimit="10" stroke-width="20"/><path d="M18.33,148.12c100.38-12.85,162.84,56.14,159.05,154.39l-5.01,129.78c3.36,123.45,171.25,177.74,245.77,104.9l19.46-19.03c64.42-62.97,147.05-28.35,155.61,60.82l2.96,30.76c18.25,110.05,108.23,162.38,209.63,86.75l92.21-70.14c118.07-89.81,255.08-81.15,338.83,42.34" fill="none" stroke="#a4f3fd" stroke-miterlimit="10" stroke-width="20"/><path d="M17.54,149.95c100.38-12.85,162.51,56.01,158.72,154.27l-5.01,129.78c3.45,123.7,171.82,177.97,246.33,105.13l19.46-19.03c64.42-62.97,146.68-28.42,155.25,60.75l2.96,30.76c18.38,110.46,108.33,162.95,210.21,86.97l92.21-70.14c118.07-89.81,254.63-81.4,338.37,42.08" fill="none" stroke="#a5f4fd" stroke-miterlimit="10" stroke-width="20"/><path d="M16.74,151.78c100.38-12.85,162.18,55.89,158.39,154.15l-5.01,129.78c3.54,123.95,172.38,178.2,246.9,105.36l19.46-19.03c64.42-62.97,146.32-28.49,154.88,60.68l2.96,30.76c18.51,110.86,108.43,163.51,210.8,87.18l92.21-70.14c118.07-89.81,254.17-81.66,337.92,41.83" fill="none" stroke="#a6f4fd" stroke-miterlimit="10" stroke-width="20"/><path d="M15.94,153.61c100.38-12.85,161.85,55.77,158.06,154.02l-5.01,129.78c3.63,124.2,172.95,178.42,247.46,105.59l19.46-19.03c64.42-62.97,145.95-28.56,154.52,60.61l2.96,30.76c18.65,111.27,108.54,164.07,211.38,87.4l92.21-70.14c118.07-89.81,253.72-81.91,337.47,41.58" fill="none" stroke="#a7f4fd" stroke-miterlimit="10" stroke-width="20"/><path d="M15.15,155.43c100.38-12.85,161.52,55.65,157.73,153.9l-5.01,129.78c3.72,124.45,173.52,178.65,248.03,105.82l19.46-19.03c64.42-62.97,145.59-28.63,154.15,60.54l2.96,30.76c18.78,111.68,108.64,164.64,211.97,87.61l92.21-70.14c118.07-89.81,253.26-82.16,337.01,41.33" fill="none" stroke="#a8f4fe" stroke-miterlimit="10" stroke-width="20"/><path d="M14.35,157.26c100.38-12.85,161.19,55.52,157.4,153.78l-5.01,129.78c3.81,124.69,174.08,178.88,248.59,106.05l19.46-19.03c64.42-62.97,145.22-28.7,153.79,60.47l2.96,30.76c18.92,112.09,108.74,165.2,212.55,87.83l92.21-70.14c118.07-89.81,252.81-82.41,336.56,41.08" fill="none" stroke="#a9f5fe" stroke-miterlimit="10" stroke-width="20"/><path d="M13.55,159.09c100.38-12.85,160.86,55.4,157.07,153.66l-5.01,129.78c3.9,124.94,174.65,179.11,249.16,106.28l19.46-19.03c64.42-62.97,144.86-28.77,153.42,60.4l2.96,30.76c19.05,112.49,108.84,165.77,213.13,88.04l92.21-70.14c118.07-89.81,252.36-82.66,336.1,40.83" fill="none" stroke="#aaf5fe" stroke-miterlimit="10" stroke-width="20"/><path d="M12.75,160.92c100.38-12.85,160.53,55.28,156.74,153.53l-5.01,129.78c3.99,125.19,175.21,179.34,249.72,106.51l19.46-19.03c64.42-62.97,144.49-28.84,153.06,60.33l2.96,30.76c19.18,112.9,108.94,166.33,213.72,88.26l92.21-70.14c118.07-89.81,251.9-82.91,335.65,40.58" fill="none" stroke="#abf5fe" stroke-miterlimit="10" stroke-width="20"/><path d="M11.96,162.74c100.38-12.85,160.2,55.16,156.41,153.41l-5.01,129.78c4.08,125.44,175.78,179.57,250.29,106.73l19.46-19.03c64.42-62.97,144.12-28.91,152.69,60.26l2.96,30.76c19.32,113.31,109.04,166.9,214.3,88.47l92.21-70.14c118.07-89.81,251.45-83.16,335.2,40.33" fill="none" stroke="#acf5fe" stroke-miterlimit="10" stroke-width="20"/><path d="M11.16,164.57c100.38-12.85,159.86,55.03,156.07,153.29l-5.01,129.78c4.17,125.69,176.34,179.8,250.86,106.96l19.46-19.03c64.42-62.97,143.76-28.98,152.33,60.19l2.96,30.76c19.45,113.71,109.14,167.46,214.89,88.69l92.21-70.14c118.07-89.81,250.99-83.41,334.74,40.07" fill="none" stroke="#adf6fe" stroke-miterlimit="10" stroke-width="20"/><path d="M10.36,166.4c100.38-12.85,159.53,54.91,155.74,153.17l-5.01,129.78c4.26,125.94,176.91,180.03,251.42,107.19l19.46-19.03c64.42-62.97,143.39-29.05,151.96,60.12l2.96,30.76c19.58,114.12,109.24,168.03,215.47,88.9l92.21-70.14c118.07-89.81,250.54-83.67,334.29,39.82" fill="none" stroke="#aef6fe" stroke-miterlimit="10" stroke-width="20"/><path d="M9.57,168.23c100.38-12.85,159.2,54.79,155.41,153.04l-5.01,129.78c4.35,126.19,177.47,180.25,251.99,107.42l19.46-19.03c64.42-62.97,143.03-29.12,151.6,60.05l2.96,30.76c19.72,114.53,109.34,168.59,216.06,89.12l92.21-70.14c118.07-89.81,250.09-83.92,333.83,39.57" fill="none" stroke="#aff6fe" stroke-miterlimit="10" stroke-width="20"/><path d="M8.77,170.06c100.38-12.85,158.87,54.67,155.08,152.92l-5.01,129.78c4.44,126.44,178.04,180.48,252.55,107.65l19.46-19.03c64.42-62.97,142.66-29.19,151.23,59.98l2.96,30.76c19.85,114.94,109.44,169.15,216.64,89.33l92.21-70.14c118.07-89.81,249.63-84.17,333.38,39.32" fill="none" stroke="#b0f6fe" stroke-miterlimit="10" stroke-width="20"/><path d="M7.97,171.88c100.38-12.85,158.54,54.54,154.75,152.8l-5.01,129.78c4.54,126.68,178.6,180.71,253.12,107.88l19.46-19.03c64.42-62.97,142.3-29.26,150.87,59.91l2.96,30.76c19.99,115.34,109.54,169.72,217.23,89.54l92.21-70.14c118.07-89.81,249.18-84.42,332.93,39.07" fill="none" stroke="#b1f7fe" stroke-miterlimit="10" stroke-width="20"/><path d="M7.17,173.71c100.38-12.85,158.21,54.42,154.42,152.68l-5.01,129.78c4.63,126.93,179.17,180.94,253.68,108.11l19.46-19.03c64.42-62.97,141.93-29.33,150.5,59.84l2.96,30.76c20.12,115.75,109.64,170.28,217.81,89.76l92.21-70.14c118.07-89.81,248.72-84.67,332.47,38.82" fill="none" stroke="#b2f7fe" stroke-miterlimit="10" stroke-width="20"/><path d="M6.38,175.54c100.38-12.85,157.88,54.3,154.09,152.55l-5.01,129.78c4.72,127.18,179.73,181.17,254.25,108.34l19.46-19.03c64.42-62.97,141.57-29.4,150.14,59.77l2.96,30.76c20.25,116.16,109.74,170.85,218.39,89.97l92.21-70.14c118.07-89.81,248.27-84.92,332.02,38.57" fill="none" stroke="#b3f7fe" stroke-miterlimit="10" stroke-width="20"/><path d="M5.58,177.37c100.38-12.85,157.55,54.18,153.76,152.43l-5.01,129.78c4.81,127.43,180.3,181.4,254.81,108.56l19.46-19.03c64.42-62.97,141.2-29.47,149.77,59.7l2.96,30.76c20.39,116.57,109.84,171.41,218.98,90.19l92.21-70.14c118.07-89.81,247.82-85.17,331.56,38.32" fill="none" stroke="#b4f7fe" stroke-miterlimit="10" stroke-width="20"/><path d="M4.78,179.2c100.38-12.85,157.22,54.05,153.43,152.31l-5.01,129.78c4.9,127.68,180.87,181.63,255.38,108.79l19.46-19.03c64.42-62.97,140.84-29.54,149.41,59.63l2.96,30.76c20.52,116.97,109.95,171.98,219.56,90.4l92.21-70.14c118.07-89.81,247.36-85.42,331.11,38.07" fill="none" stroke="#b5f8ff" stroke-miterlimit="10" stroke-width="20"/><path d="M3.99,181.02c100.38-12.85,156.89,53.93,153.1,152.19l-5.01,129.78c4.99,127.93,181.43,181.86,255.94,109.02l19.46-19.03c64.42-62.97,140.47-29.61,149.04,59.56l2.96,30.76c20.66,117.38,110.05,172.54,220.15,90.62l92.21-70.14c118.07-89.81,246.91-85.68,330.66,37.81" fill="none" stroke="#b6f8ff" stroke-miterlimit="10" stroke-width="20"/><path d="M3.19,182.85c100.38-12.85,156.56,53.81,152.77,152.06l-5.01,129.78c5.08,128.18,182,182.09,256.51,109.25l19.46-19.03c64.42-62.97,140.11-29.68,148.68,59.49l2.96,30.76c20.79,117.79,110.15,173.11,220.73,90.83l92.21-70.14c118.07-89.81,246.45-85.93,330.2,37.56" fill="none" stroke="#b7f8ff" stroke-miterlimit="10" stroke-width="20"/><path d="M2.39,184.68c100.38-12.85,156.23,53.69,152.44,151.94l-5.01,129.78c5.17,128.43,182.56,182.31,257.07,109.48l19.46-19.03c64.42-62.97,139.74-29.75,148.31,59.42l2.96,30.76c20.92,118.19,110.25,173.67,221.32,91.05l92.21-70.14c118.07-89.81,246-86.18,329.75,37.31" fill="none" stroke="#b8f8ff" stroke-miterlimit="10" stroke-width="20"/><path d="M1.59,186.51c100.38-12.85,155.9,53.56,152.11,151.82l-5.01,129.78c5.26,128.67,183.13,182.54,257.64,109.71l19.46-19.03c64.42-62.97,139.38-29.82,147.95,59.35l2.96,30.76c21.06,118.6,110.35,174.24,221.9,91.26l92.21-70.14c118.07-89.81,245.55-86.43,329.29,37.06" fill="none" stroke="#b9f9ff" stroke-miterlimit="10" stroke-width="20"/><path d="M.8,188.33c100.38-12.85,155.56,53.44,151.77,151.69l-5.01,129.78c5.35,128.92,183.69,182.77,258.21,109.94l19.46-19.03c64.42-62.97,139.01-29.89,147.58,59.28l2.96,30.76c21.19,119.01,110.45,174.8,222.49,91.48l92.21-70.14c118.07-89.81,245.09-86.68,328.84,36.81" fill="none" stroke="#baf9ff" stroke-miterlimit="10" stroke-width="20"/><path d="M0,190.16c100.38-12.85,155.23,53.32,151.44,151.57l-5.01,129.78c5.44,129.17,184.26,183,258.77,110.17l19.46-19.03c64.42-62.97,138.65-29.96,147.22,59.22l2.96,30.76c21.32,119.42,110.55,175.36,223.07,91.69l92.21-70.14c118.07-89.81,244.64-86.93,328.39,36.56" fill="none" stroke="#bbf9ff" stroke-miterlimit="10" stroke-width="20"/></g></g><g><path d="M419.62,394.52c-13.84-13.84-30.57-20.77-50.16-20.77s-36.3,6.94-50.16,20.77c-13.84,13.85-20.77,30.57-20.77,50.16s6.94,36.32,20.77,50.16c13.85,13.85,30.57,20.77,50.16,20.77s36.49-7.09,50.67-21.27v21.27h20.26v-70.93c0-19.59-6.92-36.3-20.77-50.16Zm-14.3,86.02c-9.88,9.88-21.83,14.81-35.86,14.81s-25.96-4.93-35.84-14.81c-9.88-9.88-14.81-21.83-14.81-35.86s4.93-25.96,14.81-35.84c9.88-9.88,21.83-14.81,35.84-14.81s25.98,4.93,35.86,14.81c9.88,9.88,14.81,21.83,14.81,35.84s-4.93,25.98-14.81,35.86Z" fill="#1d1d1b"/><path d="M840.66,444.69c0,19.59-6.93,36.31-20.77,50.16-13.85,13.85-30.57,20.77-50.16,20.77s-36.31-6.92-50.16-20.77c-13.85-13.85-20.77-30.57-20.77-50.16s6.92-36.31,20.77-50.16c13.85-13.85,30.57-20.77,50.16-20.77s36.31,6.92,50.16,20.77c13.85,13.85,20.77,30.57,20.77,50.16Zm-70.93-50.67c-14.02,0-25.97,4.94-35.85,14.82-9.88,9.88-14.82,21.83-14.82,35.85s4.94,25.97,14.82,35.85c9.88,9.88,21.83,14.82,35.85,14.82s25.97-4.94,35.85-14.82c9.88-9.88,14.82-21.83,14.82-35.85s-4.94-25.97-14.82-35.85c-9.88-9.88-21.83-14.82-35.85-14.82Z" fill="#1d1d1b"/><path d="M982.02,394.52c-13.85-13.84-30.57-20.77-50.16-20.77s-36.3,6.94-50.16,20.77c-13.85,13.85-20.77,30.57-20.77,50.16v131.74h20.26v-82.08c.17,.17,.34,.34,.51,.5,13.85,13.85,30.57,20.77,50.16,20.77s36.3-6.92,50.16-20.77c13.85-13.84,20.77-30.57,20.77-50.16s-6.92-36.3-20.77-50.16Zm-14.32,86.02c-9.88,9.88-21.83,14.81-35.84,14.81s-25.96-4.93-35.84-14.81c-9.88-9.88-14.83-21.83-14.83-35.86s4.95-25.96,14.83-35.84c9.88-9.88,21.82-14.81,35.84-14.81s25.96,4.93,35.84,14.81c9.88,9.88,14.83,21.83,14.83,35.84s-4.95,25.98-14.83,35.86Z" fill="#1d1d1b"/><polygon points="278.27 373.75 278.27 515.61 258 515.61 258 454.82 182.01 454.82 182.01 515.61 161.74 515.61 161.74 373.75 182.01 373.75 182.01 434.56 258 434.56 258 373.75 278.27 373.75" fill="#1d1d1b"/><path d="M1225.72,429.49v86.12h-20.28v-33.2h.02v-52.92c0-9.8-3.48-18.15-10.39-25.09-6.92-6.92-15.29-10.38-25.09-10.38s-18.15,3.46-25.07,10.38c-6.92,6.94-10.39,15.29-10.39,25.09v86.12h-20.26v-86.12c0-9.8-3.46-18.15-10.38-25.09-6.94-6.92-15.29-10.38-25.09-10.38s-18.15,3.46-25.09,10.38c-6.92,6.94-10.38,15.29-10.38,25.09v86.12h-20.26v-141.86h20.26v12.79c10.05-8.53,21.87-12.79,35.47-12.79,15.36,0,28.5,5.45,39.39,16.34,2.28,2.29,4.35,4.69,6.22,7.23,1.85-2.53,3.92-4.93,6.2-7.23,10.89-10.89,24.03-16.34,39.39-16.34s28.51,5.45,39.4,16.34c10.89,10.91,16.34,24.03,16.34,39.4Z" fill="#1d1d1b"/><path d="M607.6,373.75c-19.59,0-36.32,6.94-50.16,20.77-.17,.17-.34,.34-.51,.51v-1.01c0-14.03,4.95-25.98,14.83-35.84,9.88-9.88,21.82-14.83,35.84-14.83h5.82c17.79,0,28.05,.07,47.82-1.61l3.05-.19v-19.95c-21.01,2.44-39.7,1.48-50.87,1.48h-5.82c-19.59,0-36.32,6.92-50.16,20.77-13.85,13.84-20.77,30.57-20.77,50.16v50.66c0,19.59,6.92,36.32,20.77,50.16,13.84,13.85,30.57,20.77,50.16,20.77s36.3-6.92,50.16-20.77c13.85-13.84,20.77-30.57,20.77-50.16s-6.92-36.3-20.77-50.16c-13.85-13.84-30.57-20.77-50.16-20.77Zm35.84,106.79c-9.88,9.88-21.83,14.81-35.84,14.81s-25.96-4.93-35.84-14.81c-9.88-9.88-14.83-21.83-14.83-35.86s4.95-25.96,14.83-35.84c9.88-9.88,21.82-14.81,35.84-14.81s25.96,4.93,35.84,14.81c9.88,9.88,14.81,21.83,14.81,35.84s-4.93,25.98-14.81,35.86Z" fill="#1d1d1b"/></g><rect x="0" y="-1.31" width="1301.42" height="785.59" fill="none"/></g></svg>